<?xml version="1.0" standalone="no"?>
<!DOCTYPE svg PUBLIC "-//W3C//DTD SVG 20010904//EN"
 "http://www.w3.org/TR/2001/REC-SVG-20010904/DTD/svg10.dtd">
<svg version="1.0" xmlns="http://www.w3.org/2000/svg"
 width="1080.000000pt" height="1080.000000pt" viewBox="0 0 1080.000000 1080.000000"
 preserveAspectRatio="xMidYMid meet">

<g transform="translate(0.000000,1080.000000) scale(0.100000,-0.100000)"
fill="#000000" stroke="none">
<path d="M0 5400 l0 -5400 5400 0 5400 0 0 5400 0 5400 -5400 0 -5400 0 0
-5400z m5500 1094 c100 -18 229 -65 320 -116 253 -143 424 -412 486 -768 23
-129 26 -482 6 -600 -39 -223 -120 -422 -225 -550 -141 -174 -409 -320 -634
-347 -64 -7 -72 -19 -48 -72 38 -85 163 -176 290 -212 46 -13 212 -16 340 -7
l40 3 21 -110 21 -110 -26 -12 c-53 -24 -165 -36 -277 -29 -340 19 -585 182
-689 461 l-23 60 -58 12 c-230 49 -394 134 -530 275 -150 155 -245 360 -291
628 -20 120 -23 439 -5 563 56 385 233 673 502 820 224 123 496 161 780 111z
m-2370 -25 c285 -35 458 -153 542 -369 75 -191 58 -435 -42 -590 -61 -95 -193
-191 -327 -238 -46 -15 -43 -42 7 -65 53 -25 131 -96 169 -155 17 -26 44 -81
61 -122 34 -81 260 -784 260 -806 0 -11 -27 -14 -140 -14 l-139 0 -127 388
c-69 213 -140 416 -158 452 -39 83 -123 168 -191 195 -45 17 -81 20 -337 23
l-288 3 -2 -528 -3 -528 -137 -3 -138 -3 0 1186 0 1185 453 0 c256 0 489 -5
537 -11z"/>
<path d="M5108 6240 c-287 -49 -474 -226 -553 -526 -59 -222 -60 -592 -4 -819
73 -290 248 -473 509 -531 113 -25 332 -23 432 4 299 82 460 287 513 657 20
134 19 418 -1 554 -18 124 -67 276 -115 358 -87 147 -246 256 -429 293 -99 21
-262 25 -352 10z"/>
<path d="M2420 5824 l0 -416 343 5 c382 5 420 10 515 73 99 65 145 172 146
339 1 236 -101 371 -305 404 -35 6 -207 11 -381 11 l-318 0 0 -416z"/>
</g>
</svg>
